<svg width="40" height="40" viewBox="0 0 40 40" fill="none" xmlns="http://www.w3.org/2000/svg">
<path d="M30.7134 40H8.46433C3.78476 40 0 36.2152 0 31.5357V8.46433C0 3.79686 3.78476 0 8.46433 0H30.7134C35.393 0 39.1778 3.78476 39.1778 8.46433V31.5236C39.1778 36.2031 35.3809 40 30.7134 40Z" fill="url(#paint0_linear_536_2516)"/>
<path d="M16.3484 40.001V25.9139H11.1973L11.294 20.0251H16.3484V14.9345C16.3484 11.1497 19.7462 6.69988 27.9808 8.54994V13.4955L25.4778 13.5439C23.7487 13.5802 22.5999 14.7652 22.5999 16.4822V20.0251H27.9808L27.1102 25.9139H22.5999V39.9889H16.3484V40.001Z" fill="white"/>
<defs>
<linearGradient id="paint0_linear_536_2516" x1="19.0309" y1="-2.85726" x2="20.2552" y2="47.3378" gradientUnits="userSpaceOnUse">
<stop stop-color="#0FACFF"/>
<stop offset="1" stop-color="#005FDD"/>
</linearGradient>
</defs>
</svg>
