<svg width="40" height="40" viewBox="0 0 40 40" fill="none" xmlns="http://www.w3.org/2000/svg">
<path d="M33.4863 0H6.51367C2.91627 0 0 2.91627 0 6.51367V33.4863C0 37.0837 2.91627 40 6.51367 40H33.4863C37.0837 40 40 37.0837 40 33.4863V6.51367C40 2.91627 37.0837 0 33.4863 0Z" fill="url(#paint0_radial_536_2547)"/>
<path d="M27.0935 36.4646H12.9062C10.4219 36.4601 8.04068 35.4713 6.28405 33.7147C4.52741 31.9581 3.53859 29.5768 3.53418 27.0926V12.9052C3.53859 10.4209 4.52741 8.03971 6.28405 6.28307C8.04068 4.52644 10.4219 3.53762 12.9062 3.5332H27.0935C29.5778 3.53762 31.959 4.52644 33.7157 6.28307C35.4723 8.03971 36.4611 10.4209 36.4655 12.9052V27.0926C36.4611 29.5768 35.4723 31.9581 33.7157 33.7147C31.959 35.4713 29.5778 36.4601 27.0935 36.4646V36.4646ZM12.9062 6.35607C11.1698 6.35773 9.50492 7.04826 8.27707 8.2761C7.04923 9.50394 6.3587 11.1688 6.35705 12.9052V27.0926C6.3587 28.829 7.04923 30.4938 8.27707 31.7217C9.50492 32.9495 11.1698 33.64 12.9062 33.6417H27.0935C28.83 33.64 30.4948 32.9495 31.7226 31.7217C32.9505 30.4938 33.641 28.829 33.6427 27.0926V12.9052C33.641 11.1688 32.9505 9.50394 31.7226 8.2761C30.4948 7.04826 28.83 6.35773 27.0935 6.35607H12.9062Z" fill="white"/>
<path d="M20 28.4327C18.3321 28.4327 16.7017 27.9381 15.3148 27.0114C13.928 26.0848 12.8471 24.7677 12.2088 23.2268C11.5705 21.6858 11.4035 19.9902 11.7289 18.3543C12.0543 16.7185 12.8575 15.2158 14.0369 14.0364C15.2163 12.857 16.7189 12.0538 18.3548 11.7285C19.9907 11.4031 21.6863 11.5701 23.2272 12.2083C24.7682 12.8466 26.0853 13.9275 27.0119 15.3143C27.9386 16.7012 28.4332 18.3316 28.4332 19.9995C28.431 22.2355 27.5418 24.3792 25.9607 25.9602C24.3797 27.5413 22.236 28.4305 20 28.4327V28.4327ZM20 14.3893C18.8904 14.3893 17.8057 14.7183 16.8831 15.3348C15.9605 15.9512 15.2414 16.8274 14.8168 17.8526C14.3922 18.8777 14.2811 20.0058 14.4976 21.094C14.714 22.1823 15.2484 23.182 16.033 23.9666C16.8176 24.7512 17.8172 25.2855 18.9055 25.502C19.9938 25.7185 21.1218 25.6074 22.147 25.1827C23.1721 24.7581 24.0483 24.039 24.6648 23.1164C25.2813 22.1938 25.6103 21.1091 25.6103 19.9995C25.607 18.5132 25.0146 17.0888 23.963 16.0384C22.9115 14.9879 21.4864 14.3972 20 14.3955V14.3893Z" fill="white"/>
<path d="M30.8203 11.0845C30.8203 11.4851 30.7015 11.8767 30.479 12.2098C30.2565 12.5429 29.9402 12.8025 29.5702 12.9559C29.2001 13.1093 28.7929 13.1496 28.4 13.0716C28.007 12.9936 27.6461 12.8008 27.3627 12.5177C27.0792 12.2346 26.8861 11.8738 26.8077 11.481C26.7293 11.0881 26.7692 10.6809 26.9222 10.3106C27.0752 9.94043 27.3345 9.62389 27.6674 9.40103C28.0003 9.17817 28.3917 9.05901 28.7923 9.05859C29.0586 9.05832 29.3222 9.11052 29.5682 9.21221C29.8143 9.31389 30.0379 9.46307 30.2262 9.65122C30.4145 9.83937 30.5639 10.0628 30.6659 10.3087C30.7678 10.5546 30.8203 10.8182 30.8203 11.0845Z" fill="white"/>
<defs>
<radialGradient id="paint0_radial_536_2547" cx="0" cy="0" r="1" gradientUnits="userSpaceOnUse" gradientTransform="translate(6.45316 39.4617) scale(48.2683)">
<stop stop-color="#FEC053"/>
<stop offset="0.33" stop-color="#F2203E"/>
<stop offset="0.65" stop-color="#B729A8"/>
<stop offset="1" stop-color="#5342D6"/>
</radialGradient>
</defs>
</svg>
