<svg width="40" height="40" viewBox="0 0 40 40" fill="none" xmlns="http://www.w3.org/2000/svg">
<path d="M30.7134 40H8.46433C3.78476 40 0 36.2152 0 31.5357V8.46433C0 3.79686 3.78476 0 8.46433 0H30.7134C35.393 0 39.1778 3.78476 39.1778 8.46433V31.5236C39.1778 36.2031 35.3809 40 30.7134 40Z" fill="black"/>
<path d="M15.8267 20.5883C13.7402 20.5883 12.0545 22.274 12.0854 24.3399C12.1059 25.6658 12.8357 26.817 13.9098 27.4594C13.5449 26.8992 13.3291 26.2363 13.3188 25.5219C13.2879 23.456 14.9736 21.7703 17.0601 21.7703C17.4712 21.7703 17.8669 21.8371 18.237 21.9553V17.8183C17.8515 17.7618 17.4558 17.731 17.0601 17.731C17.0395 17.731 17.0241 17.731 17.0036 17.731V20.7733C16.6335 20.6551 16.2378 20.5883 15.8267 20.5883Z" fill="#F00044"/>
<path d="M24.8459 8.18262H24.815H23.7461C24.0544 9.7295 24.923 11.076 26.1358 11.9907C25.3392 10.9372 24.8562 9.62158 24.8459 8.18262Z" fill="#F00044"/>
<path d="M31.1366 14.4778C30.7306 14.4778 30.3401 14.4367 29.9546 14.3647V17.33C28.5568 17.33 27.2 17.0577 25.9255 16.5129C25.1032 16.1635 24.3375 15.7163 23.6334 15.1767L23.654 24.3193C23.6437 26.375 22.8317 28.3022 21.3619 29.7565C20.1645 30.9385 18.6485 31.694 17.0039 31.9355C16.6185 31.9921 16.2228 32.0229 15.8271 32.0229C14.0695 32.0229 12.3941 31.4525 11.0322 30.3989C11.1864 30.5839 11.3509 30.7638 11.5307 30.9385C13.0108 32.3981 14.974 33.2049 17.0656 33.2049C17.4613 33.2049 17.857 33.1741 18.2425 33.1175C19.887 32.876 21.4031 32.1205 22.6005 30.9385C24.0703 29.4842 24.8823 27.557 24.8925 25.5013L24.8155 16.3587C25.5144 16.8984 26.2801 17.3506 27.1075 17.6949C28.3872 18.2345 29.7439 18.512 31.1366 18.512" fill="#F00044"/>
<path d="M11.5152 20.0075C12.9799 18.5531 14.9276 17.7463 17.0038 17.7308V16.6362C16.6184 16.5797 16.2227 16.5488 15.827 16.5488C13.7302 16.5488 11.7619 17.3557 10.2818 18.8255C8.82743 20.2696 7.99488 22.243 8.00002 24.2935C8.00002 26.3595 8.81715 28.2969 10.2921 29.7616C10.5285 29.9929 10.77 30.2087 11.027 30.404C9.86554 29.0216 9.23342 27.2948 9.22828 25.4756C9.23342 23.425 10.0608 21.4516 11.5152 20.0075Z" fill="#08FFF9"/>
<path d="M29.9549 14.3645V13.2647H29.9446C28.5159 13.2647 27.2003 12.7919 26.1416 11.9902C27.0615 13.2031 28.408 14.0665 29.9549 14.3645Z" fill="#08FFF9"/>
<path d="M16.8498 29.1601C17.338 29.1858 17.8056 29.1189 18.2373 28.9802C19.7277 28.492 20.8018 27.1044 20.8018 25.4701L20.8069 19.3545V8.18201H23.7465C23.6694 7.79657 23.6283 7.40599 23.6232 7H19.5735V18.1674L19.5684 24.283C19.5684 25.9172 18.4943 27.3048 17.0039 27.793C16.5722 27.9369 16.1046 28.0038 15.6164 27.9729C14.9945 27.9369 14.4138 27.7519 13.9102 27.4539C14.5423 28.4303 15.6215 29.0933 16.8498 29.1601Z" fill="#08FFF9"/>
<path d="M17.0038 31.9348C18.6484 31.6933 20.1644 30.9378 21.3618 29.7558C22.8316 28.3015 23.6436 26.3743 23.6539 24.3186L23.6334 15.176C24.3323 15.7157 25.098 16.1679 25.9254 16.5122C27.2051 17.0518 28.5618 17.3293 29.9545 17.3293V14.3641C28.4076 14.066 27.0612 13.2026 26.1413 11.9898C24.9284 11.075 24.0548 9.72853 23.7516 8.18164H20.8068V19.349L20.8017 25.4646C20.8017 27.0989 19.7276 28.4865 18.2372 28.9747C17.8055 29.1186 17.3379 29.1854 16.8497 29.1546C15.6163 29.0877 14.5422 28.4248 13.9101 27.4535C12.836 26.8162 12.1062 25.6599 12.0857 24.334C12.0548 22.2681 13.7405 20.5824 15.827 20.5824C16.2381 20.5824 16.6338 20.6492 17.0038 20.7674V17.7251C14.9276 17.7405 12.9799 18.5473 11.5152 20.0017C10.0608 21.4458 9.22828 23.4193 9.23342 25.4646C9.23342 27.2839 9.86554 29.0107 11.0321 30.3931C12.3991 31.4466 14.0694 32.0171 15.827 32.0171C16.2227 32.0222 16.6184 31.9914 17.0038 31.9348Z" fill="white"/>
</svg>
