<svg width="40" height="40" viewBox="0 0 40 40" fill="none" xmlns="http://www.w3.org/2000/svg">
<path d="M30.7134 40H8.46433C3.78476 40 0 36.2152 0 31.5357V8.46433C0 3.79686 3.78476 0 8.46433 0H30.7134C35.393 0 39.1778 3.78476 39.1778 8.46433V31.5236C39.1778 36.2031 35.3809 40 30.7134 40Z" fill="#FF0401"/>
<path d="M33.9418 15.6704C33.8814 15.2834 33.8209 14.8844 33.7363 14.4974C33.6879 14.2314 33.6395 13.9775 33.5791 13.7115C33.5428 13.5422 33.4944 13.3729 33.434 13.2036C33.3977 13.119 33.3614 13.0222 33.3372 12.9497C33.0833 12.3572 32.6843 11.8493 32.2006 11.4382C31.5234 10.8699 30.6528 10.4829 29.6855 10.3499C23.047 9.4793 16.4932 9.68486 9.5041 10.3499C9.29854 10.3741 9.09298 10.4104 8.89951 10.4587C8.68185 10.5071 8.47629 10.5797 8.28282 10.6643C8.27073 10.6764 8.24654 10.6764 8.23445 10.6885C7.76287 10.882 7.33965 11.1359 6.9648 11.4382C6.50531 11.8251 6.13046 12.2967 5.87653 12.865C5.85235 12.9134 5.82816 12.9618 5.80398 13.0222C5.79189 13.0706 5.7677 13.1069 5.75561 13.1552L5.71934 13.252L5.59842 13.6994C5.53796 13.9533 5.48959 14.2193 5.44122 14.4853C5.36867 14.8723 5.29612 15.2713 5.23566 15.6583C5.05428 16.8433 4.95755 18.0404 4.92127 19.2375C4.92127 19.3463 4.90918 19.4672 4.90918 19.576C4.90918 19.7211 4.90918 19.8541 4.90918 19.9993V20.0234C4.90918 20.1685 4.93336 20.5555 5.23566 24.3402C5.29612 24.7272 5.35658 25.1262 5.44122 25.5132C5.48959 25.7792 5.53796 26.0331 5.59842 26.2991C5.63469 26.4684 5.68306 26.6377 5.74352 26.807C5.7798 26.8916 5.81607 26.9884 5.84026 27.0609C6.09419 27.6534 6.49322 28.1613 6.97689 28.5724C7.65404 29.1407 8.53675 29.5277 9.49201 29.6607C16.1305 30.5313 22.6843 30.3257 29.6734 29.6607C29.891 29.6365 30.1087 29.6002 30.3143 29.5398C30.3384 29.5398 30.3626 29.5277 30.3868 29.5156C30.6045 29.4551 30.81 29.3826 31.0156 29.2858C31.0277 29.2737 31.0398 29.2737 31.0519 29.2616C31.4751 29.0803 31.862 28.8384 32.2006 28.5603C32.6601 28.1734 33.0349 27.7018 33.2889 27.1335C33.313 27.0851 33.3372 27.0367 33.3614 26.9763C33.3735 26.9279 33.3977 26.8916 33.4098 26.8433C33.4219 26.807 33.434 26.7828 33.4461 26.7465L33.567 26.2991C33.6274 26.0452 33.6758 25.7792 33.7242 25.5132C33.7967 25.1262 33.8693 24.7272 33.9297 24.3402C34.1111 23.1552 34.2079 21.9581 34.2441 20.761C34.2441 20.6522 34.2562 20.5313 34.2562 20.4225C34.2562 20.2774 34.2562 20.1202 34.2562 19.9751C34.2562 19.8421 34.232 19.4551 33.9418 15.6704Z" fill="white"/>
<path d="M24.0145 19.9756C24.0387 19.9877 24.0387 20.0239 24.0145 20.036L20.3386 22.1642L16.6626 24.2924C16.6384 24.3045 16.6143 24.2924 16.6143 24.2682V20.0118V15.7555C16.6143 15.7313 16.6384 15.7192 16.6626 15.7313L20.3386 17.8595L24.0145 19.9756Z" fill="#FF0401"/>
</svg>
